<svg version="1.0" xmlns="http://www.w3.org/2000/svg" width="2120.000000pt" height="2120.000000pt" viewBox="0 0 2120.000000 2120.000000" preserveAspectRatio="xMidYMid meet"> <g transform="translate(0.000000,2120.000000) scale(0.100000,-0.100000)" fill="#417fab" stroke="none"> <path d="M2203 18992 l-1591 -1599 3414 -3414 3414 -3414 -3417 -3417 -3418 -3418 1598 -1597 1597 -1598 3413 3413 c1876 1876 3417 3412 3422 3412 5 0 1546 -1536 3422 -3412 l3413 -3413 1595 1595 1595 1595 -3417 3417 -3418 3418 3418 3418 3417 3417 -1597 1598 -1598 1597 -3417 -3417 -3418 -3418 -3418 3418 -3418 3418 -1591 -1599z"/> </g> </svg>